<mxfile host="app.diagrams.net" modified="2024-01-31T14:15:59.921Z" agent="Mozilla/5.0 (Windows NT 10.0; Win64; x64) AppleWebKit/537.36 (KHTML, like Gecko) Chrome/121.0.0.0 Safari/537.36 Edg/121.0.0.0" etag="hk_NlvV17WoCO4RhnVOc" version="23.0.2" type="device">
  <diagram name="第 1 页" id="uVkd4KvrKCw7aUiNvQXj">
    <mxGraphModel dx="1311" dy="915" grid="1" gridSize="10" guides="1" tooltips="1" connect="1" arrows="1" fold="1" page="1" pageScale="1" pageWidth="827" pageHeight="1169" math="0" shadow="0">
      <root>
        <mxCell id="0" />
        <mxCell id="1" parent="0" />
        <mxCell id="yH9x7RMEsDiriQ-Wmc9Q-32" value="" style="group;fontSize=9;fontFamily=Times New Roman;fontStyle=0" parent="1" vertex="1" connectable="0">
          <mxGeometry x="71" y="721" width="1040" height="120" as="geometry" />
        </mxCell>
        <mxCell id="yH9x7RMEsDiriQ-Wmc9Q-15" value="&lt;font style=&quot;font-size: 20px;&quot;&gt;1008次，10月1日，[101，512，…]&lt;/font&gt;" style="swimlane;childLayout=stackLayout;resizeParent=1;resizeParentMax=0;horizontal=1;startSize=40;horizontalStack=0;html=1;fontFamily=Times New Roman;fontStyle=0" parent="yH9x7RMEsDiriQ-Wmc9Q-32" vertex="1">
          <mxGeometry width="320" height="120" as="geometry">
            <mxRectangle x="110" y="580" width="70" height="30" as="alternateBounds" />
          </mxGeometry>
        </mxCell>
        <mxCell id="yH9x7RMEsDiriQ-Wmc9Q-16" value="&lt;span style=&quot;&quot;&gt;&lt;font style=&quot;font-size: 20px;&quot;&gt;1008次，10月2日，[200，211，…]&lt;/font&gt;&lt;/span&gt;" style="swimlane;startSize=480;horizontal=0;html=1;fontFamily=Times New Roman;fontStyle=0" parent="yH9x7RMEsDiriQ-Wmc9Q-15" vertex="1" collapsed="1">
          <mxGeometry y="40" width="320" height="40" as="geometry">
            <mxRectangle y="40" width="320" height="120" as="alternateBounds" />
          </mxGeometry>
        </mxCell>
        <mxCell id="yH9x7RMEsDiriQ-Wmc9Q-17" value="&lt;font style=&quot;font-size: 20px;&quot;&gt;&amp;nbsp; 1008次，…&lt;/font&gt;" style="swimlane;startSize=480;horizontal=0;html=1;align=left;fontFamily=Times New Roman;fontStyle=0" parent="yH9x7RMEsDiriQ-Wmc9Q-15" vertex="1" collapsed="1">
          <mxGeometry y="80" width="320" height="40" as="geometry">
            <mxRectangle y="140" width="480" height="120" as="alternateBounds" />
          </mxGeometry>
        </mxCell>
        <mxCell id="yH9x7RMEsDiriQ-Wmc9Q-25" value="&lt;font style=&quot;font-size: 20px;&quot;&gt;1100次，10月1日，[0，0，…]&lt;/font&gt;" style="swimlane;childLayout=stackLayout;resizeParent=1;resizeParentMax=0;horizontal=1;startSize=40;horizontalStack=0;html=1;fontFamily=Times New Roman;fontStyle=0" parent="yH9x7RMEsDiriQ-Wmc9Q-32" vertex="1">
          <mxGeometry x="360" width="320" height="120" as="geometry">
            <mxRectangle x="110" y="580" width="70" height="30" as="alternateBounds" />
          </mxGeometry>
        </mxCell>
        <mxCell id="yH9x7RMEsDiriQ-Wmc9Q-26" value="&lt;span style=&quot;&quot;&gt;&lt;font style=&quot;font-size: 20px;&quot;&gt;1100次，10月2日，[0，0，…]&lt;/font&gt;&lt;/span&gt;" style="swimlane;startSize=480;horizontal=0;html=1;fontFamily=Times New Roman;fontStyle=0" parent="yH9x7RMEsDiriQ-Wmc9Q-25" vertex="1" collapsed="1">
          <mxGeometry y="40" width="320" height="40" as="geometry">
            <mxRectangle y="40" width="320" height="120" as="alternateBounds" />
          </mxGeometry>
        </mxCell>
        <mxCell id="yH9x7RMEsDiriQ-Wmc9Q-27" value="&lt;font style=&quot;font-size: 20px;&quot;&gt;&amp;nbsp; &amp;nbsp; &amp;nbsp;1100次，…&lt;/font&gt;" style="swimlane;startSize=480;horizontal=0;html=1;align=left;fontFamily=Times New Roman;fontStyle=0" parent="yH9x7RMEsDiriQ-Wmc9Q-25" vertex="1" collapsed="1">
          <mxGeometry y="80" width="320" height="40" as="geometry">
            <mxRectangle y="140" width="480" height="120" as="alternateBounds" />
          </mxGeometry>
        </mxCell>
        <mxCell id="yH9x7RMEsDiriQ-Wmc9Q-28" value="&lt;font style=&quot;font-size: 20px;&quot;&gt;1462次，10月1日，[132，18，…]&lt;/font&gt;" style="swimlane;childLayout=stackLayout;resizeParent=1;resizeParentMax=0;horizontal=1;startSize=40;horizontalStack=0;html=1;fontFamily=Times New Roman;fontStyle=0" parent="yH9x7RMEsDiriQ-Wmc9Q-32" vertex="1">
          <mxGeometry x="720" width="320" height="120" as="geometry">
            <mxRectangle x="110" y="580" width="70" height="30" as="alternateBounds" />
          </mxGeometry>
        </mxCell>
        <mxCell id="yH9x7RMEsDiriQ-Wmc9Q-29" value="&lt;span style=&quot;&quot;&gt;&lt;font style=&quot;font-size: 20px;&quot;&gt;1462次，10月2日，[359，96，…]&lt;/font&gt;&lt;/span&gt;" style="swimlane;startSize=480;horizontal=0;html=1;fontFamily=Times New Roman;fontStyle=0" parent="yH9x7RMEsDiriQ-Wmc9Q-28" vertex="1" collapsed="1">
          <mxGeometry y="40" width="320" height="40" as="geometry">
            <mxRectangle y="40" width="320" height="120" as="alternateBounds" />
          </mxGeometry>
        </mxCell>
        <mxCell id="yH9x7RMEsDiriQ-Wmc9Q-30" value="&lt;font style=&quot;font-size: 20px;&quot;&gt;&amp;nbsp; 1462次，…&lt;/font&gt;" style="swimlane;startSize=480;horizontal=0;html=1;align=left;fontFamily=Times New Roman;fontStyle=0" parent="yH9x7RMEsDiriQ-Wmc9Q-28" vertex="1" collapsed="1">
          <mxGeometry y="80" width="320" height="40" as="geometry">
            <mxRectangle y="140" width="480" height="120" as="alternateBounds" />
          </mxGeometry>
        </mxCell>
        <mxCell id="yH9x7RMEsDiriQ-Wmc9Q-48" value="" style="rounded=0;whiteSpace=wrap;html=1;" parent="1" vertex="1">
          <mxGeometry x="549" y="620" width="150" height="60" as="geometry" />
        </mxCell>
        <mxCell id="yH9x7RMEsDiriQ-Wmc9Q-54" value="" style="rounded=0;whiteSpace=wrap;html=1;" parent="1" vertex="1">
          <mxGeometry x="990" y="621" width="150" height="60" as="geometry" />
        </mxCell>
        <mxCell id="yH9x7RMEsDiriQ-Wmc9Q-55" value="" style="group;movable=1;resizable=1;rotatable=1;deletable=1;editable=1;locked=0;connectable=1;" parent="1" vertex="1" connectable="0">
          <mxGeometry x="800" y="620" width="150" height="61" as="geometry" />
        </mxCell>
        <mxCell id="yH9x7RMEsDiriQ-Wmc9Q-38" value="" style="rounded=0;whiteSpace=wrap;html=1;movable=1;resizable=1;rotatable=1;deletable=1;editable=1;locked=0;connectable=1;" parent="yH9x7RMEsDiriQ-Wmc9Q-55" vertex="1">
          <mxGeometry width="150" height="60" as="geometry" />
        </mxCell>
        <mxCell id="yH9x7RMEsDiriQ-Wmc9Q-39" value="" style="endArrow=none;html=1;rounded=0;entryX=0.25;entryY=0;entryDx=0;entryDy=0;exitX=0.25;exitY=1;exitDx=0;exitDy=0;" parent="yH9x7RMEsDiriQ-Wmc9Q-55" edge="1">
          <mxGeometry width="50" height="50" relative="1" as="geometry">
            <mxPoint x="79.5" y="60" as="sourcePoint" />
            <mxPoint x="79.5" as="targetPoint" />
          </mxGeometry>
        </mxCell>
        <mxCell id="yH9x7RMEsDiriQ-Wmc9Q-40" value="" style="endArrow=none;html=1;rounded=0;entryX=0.25;entryY=0;entryDx=0;entryDy=0;exitX=0.25;exitY=1;exitDx=0;exitDy=0;" parent="yH9x7RMEsDiriQ-Wmc9Q-55" edge="1">
          <mxGeometry width="50" height="50" relative="1" as="geometry">
            <mxPoint x="19" y="61" as="sourcePoint" />
            <mxPoint x="19" y="1" as="targetPoint" />
          </mxGeometry>
        </mxCell>
        <mxCell id="yH9x7RMEsDiriQ-Wmc9Q-41" value="" style="endArrow=none;html=1;rounded=0;entryX=0.25;entryY=0;entryDx=0;entryDy=0;exitX=0.25;exitY=1;exitDx=0;exitDy=0;" parent="yH9x7RMEsDiriQ-Wmc9Q-55" edge="1">
          <mxGeometry width="50" height="50" relative="1" as="geometry">
            <mxPoint x="99.5" y="60" as="sourcePoint" />
            <mxPoint x="99.5" as="targetPoint" />
          </mxGeometry>
        </mxCell>
        <mxCell id="yH9x7RMEsDiriQ-Wmc9Q-92" style="edgeStyle=orthogonalEdgeStyle;rounded=0;orthogonalLoop=1;jettySize=auto;html=1;exitX=1;exitY=1;exitDx=0;exitDy=0;" parent="yH9x7RMEsDiriQ-Wmc9Q-55" edge="1">
          <mxGeometry relative="1" as="geometry">
            <mxPoint x="90.00000000000023" y="100" as="targetPoint" />
            <mxPoint x="90.00000000000023" y="60" as="sourcePoint" />
          </mxGeometry>
        </mxCell>
        <mxCell id="yH9x7RMEsDiriQ-Wmc9Q-42" value="&lt;font style=&quot;font-size: 20px;&quot; face=&quot;Times New Roman&quot;&gt;1461&lt;/font&gt;" style="text;html=1;strokeColor=none;fillColor=none;align=center;verticalAlign=middle;whiteSpace=wrap;rounded=0;" parent="yH9x7RMEsDiriQ-Wmc9Q-55" vertex="1">
          <mxGeometry x="20" width="60" height="60" as="geometry" />
        </mxCell>
        <mxCell id="yH9x7RMEsDiriQ-Wmc9Q-56" value="" style="group" parent="1" vertex="1" connectable="0">
          <mxGeometry x="360" y="620" width="150" height="61" as="geometry" />
        </mxCell>
        <mxCell id="yH9x7RMEsDiriQ-Wmc9Q-43" value="" style="rounded=0;whiteSpace=wrap;html=1;" parent="yH9x7RMEsDiriQ-Wmc9Q-56" vertex="1">
          <mxGeometry width="150" height="60" as="geometry" />
        </mxCell>
        <mxCell id="yH9x7RMEsDiriQ-Wmc9Q-44" value="" style="endArrow=none;html=1;rounded=0;entryX=0.25;entryY=0;entryDx=0;entryDy=0;exitX=0.25;exitY=1;exitDx=0;exitDy=0;" parent="yH9x7RMEsDiriQ-Wmc9Q-56" edge="1">
          <mxGeometry width="50" height="50" relative="1" as="geometry">
            <mxPoint x="49.5" y="60" as="sourcePoint" />
            <mxPoint x="49.5" as="targetPoint" />
          </mxGeometry>
        </mxCell>
        <mxCell id="yH9x7RMEsDiriQ-Wmc9Q-45" value="" style="endArrow=none;html=1;rounded=0;entryX=0.25;entryY=0;entryDx=0;entryDy=0;exitX=0.25;exitY=1;exitDx=0;exitDy=0;" parent="yH9x7RMEsDiriQ-Wmc9Q-56" edge="1">
          <mxGeometry width="50" height="50" relative="1" as="geometry">
            <mxPoint x="130" y="61" as="sourcePoint" />
            <mxPoint x="130" y="1" as="targetPoint" />
          </mxGeometry>
        </mxCell>
        <mxCell id="yH9x7RMEsDiriQ-Wmc9Q-46" value="" style="endArrow=none;html=1;rounded=0;entryX=0.25;entryY=0;entryDx=0;entryDy=0;exitX=0.25;exitY=1;exitDx=0;exitDy=0;" parent="yH9x7RMEsDiriQ-Wmc9Q-56" edge="1">
          <mxGeometry width="50" height="50" relative="1" as="geometry">
            <mxPoint x="69.5" y="60" as="sourcePoint" />
            <mxPoint x="69.5" as="targetPoint" />
          </mxGeometry>
        </mxCell>
        <mxCell id="yH9x7RMEsDiriQ-Wmc9Q-89" style="edgeStyle=orthogonalEdgeStyle;rounded=0;orthogonalLoop=1;jettySize=auto;html=1;exitX=1;exitY=1;exitDx=0;exitDy=0;" parent="yH9x7RMEsDiriQ-Wmc9Q-56" edge="1">
          <mxGeometry relative="1" as="geometry">
            <mxPoint x="141" y="100" as="targetPoint" />
            <mxPoint x="141" y="60" as="sourcePoint" />
          </mxGeometry>
        </mxCell>
        <mxCell id="yH9x7RMEsDiriQ-Wmc9Q-47" value="&lt;font style=&quot;font-size: 20px;&quot; face=&quot;Times New Roman&quot;&gt;1100&lt;/font&gt;" style="text;html=1;strokeColor=none;fillColor=none;align=center;verticalAlign=middle;whiteSpace=wrap;rounded=0;" parent="yH9x7RMEsDiriQ-Wmc9Q-56" vertex="1">
          <mxGeometry x="70" width="60" height="60" as="geometry" />
        </mxCell>
        <mxCell id="yH9x7RMEsDiriQ-Wmc9Q-57" value="" style="group" parent="1" vertex="1" connectable="0">
          <mxGeometry x="170" y="620" width="150" height="61" as="geometry" />
        </mxCell>
        <mxCell id="yH9x7RMEsDiriQ-Wmc9Q-33" value="" style="rounded=0;whiteSpace=wrap;html=1;" parent="yH9x7RMEsDiriQ-Wmc9Q-57" vertex="1">
          <mxGeometry width="150" height="60" as="geometry" />
        </mxCell>
        <mxCell id="yH9x7RMEsDiriQ-Wmc9Q-34" value="" style="endArrow=none;html=1;rounded=0;entryX=0.25;entryY=0;entryDx=0;entryDy=0;exitX=0.25;exitY=1;exitDx=0;exitDy=0;" parent="yH9x7RMEsDiriQ-Wmc9Q-57" edge="1">
          <mxGeometry width="50" height="50" relative="1" as="geometry">
            <mxPoint x="79.5" y="60" as="sourcePoint" />
            <mxPoint x="79.5" as="targetPoint" />
          </mxGeometry>
        </mxCell>
        <mxCell id="yH9x7RMEsDiriQ-Wmc9Q-35" value="" style="endArrow=none;html=1;rounded=0;entryX=0.25;entryY=0;entryDx=0;entryDy=0;exitX=0.25;exitY=1;exitDx=0;exitDy=0;" parent="yH9x7RMEsDiriQ-Wmc9Q-57" edge="1">
          <mxGeometry width="50" height="50" relative="1" as="geometry">
            <mxPoint x="19" y="61" as="sourcePoint" />
            <mxPoint x="19" y="1" as="targetPoint" />
          </mxGeometry>
        </mxCell>
        <mxCell id="yH9x7RMEsDiriQ-Wmc9Q-36" value="" style="endArrow=none;html=1;rounded=0;entryX=0.25;entryY=0;entryDx=0;entryDy=0;exitX=0.25;exitY=1;exitDx=0;exitDy=0;" parent="yH9x7RMEsDiriQ-Wmc9Q-57" edge="1">
          <mxGeometry width="50" height="50" relative="1" as="geometry">
            <mxPoint x="99.5" y="60" as="sourcePoint" />
            <mxPoint x="99.5" as="targetPoint" />
          </mxGeometry>
        </mxCell>
        <mxCell id="yH9x7RMEsDiriQ-Wmc9Q-87" style="edgeStyle=orthogonalEdgeStyle;rounded=0;orthogonalLoop=1;jettySize=auto;html=1;exitX=0;exitY=1;exitDx=0;exitDy=0;" parent="yH9x7RMEsDiriQ-Wmc9Q-57" edge="1">
          <mxGeometry relative="1" as="geometry">
            <mxPoint x="9" y="100" as="targetPoint" />
            <mxPoint x="9" y="60" as="sourcePoint" />
          </mxGeometry>
        </mxCell>
        <mxCell id="yH9x7RMEsDiriQ-Wmc9Q-37" value="&lt;font style=&quot;font-size: 20px;&quot; face=&quot;Times New Roman&quot;&gt;1010&lt;/font&gt;" style="text;html=1;strokeColor=none;fillColor=none;align=center;verticalAlign=middle;whiteSpace=wrap;rounded=0;" parent="yH9x7RMEsDiriQ-Wmc9Q-57" vertex="1">
          <mxGeometry x="20" width="60" height="60" as="geometry" />
        </mxCell>
        <mxCell id="yH9x7RMEsDiriQ-Wmc9Q-65" value="" style="group" parent="1" vertex="1" connectable="0">
          <mxGeometry x="430" y="500" width="180" height="61" as="geometry" />
        </mxCell>
        <mxCell id="yH9x7RMEsDiriQ-Wmc9Q-64" value="" style="endArrow=none;html=1;rounded=0;entryX=0.25;entryY=0;entryDx=0;entryDy=0;exitX=0.25;exitY=1;exitDx=0;exitDy=0;" parent="yH9x7RMEsDiriQ-Wmc9Q-65" edge="1">
          <mxGeometry width="50" height="50" relative="1" as="geometry">
            <mxPoint x="160.5" y="60" as="sourcePoint" />
            <mxPoint x="160.5" as="targetPoint" />
          </mxGeometry>
        </mxCell>
        <mxCell id="yH9x7RMEsDiriQ-Wmc9Q-59" value="" style="rounded=0;whiteSpace=wrap;html=1;container=0;" parent="yH9x7RMEsDiriQ-Wmc9Q-65" vertex="1">
          <mxGeometry width="180" height="60" as="geometry" />
        </mxCell>
        <mxCell id="yH9x7RMEsDiriQ-Wmc9Q-60" value="" style="endArrow=none;html=1;rounded=0;entryX=0.25;entryY=0;entryDx=0;entryDy=0;exitX=0.25;exitY=1;exitDx=0;exitDy=0;" parent="yH9x7RMEsDiriQ-Wmc9Q-65" edge="1">
          <mxGeometry width="50" height="50" relative="1" as="geometry">
            <mxPoint x="79.5" y="60" as="sourcePoint" />
            <mxPoint x="79.5" as="targetPoint" />
          </mxGeometry>
        </mxCell>
        <mxCell id="yH9x7RMEsDiriQ-Wmc9Q-61" value="" style="endArrow=none;html=1;rounded=0;entryX=0.25;entryY=0;entryDx=0;entryDy=0;exitX=0.25;exitY=1;exitDx=0;exitDy=0;" parent="yH9x7RMEsDiriQ-Wmc9Q-65" edge="1">
          <mxGeometry width="50" height="50" relative="1" as="geometry">
            <mxPoint x="19" y="61" as="sourcePoint" />
            <mxPoint x="19" y="1" as="targetPoint" />
          </mxGeometry>
        </mxCell>
        <mxCell id="yH9x7RMEsDiriQ-Wmc9Q-62" value="" style="endArrow=none;html=1;rounded=0;entryX=0.25;entryY=0;entryDx=0;entryDy=0;exitX=0.25;exitY=1;exitDx=0;exitDy=0;" parent="yH9x7RMEsDiriQ-Wmc9Q-65" edge="1">
          <mxGeometry width="50" height="50" relative="1" as="geometry">
            <mxPoint x="99.5" y="60" as="sourcePoint" />
            <mxPoint x="99.5" as="targetPoint" />
          </mxGeometry>
        </mxCell>
        <mxCell id="yH9x7RMEsDiriQ-Wmc9Q-72" value="" style="endArrow=none;html=1;rounded=0;entryX=0.25;entryY=0;entryDx=0;entryDy=0;exitX=0.25;exitY=1;exitDx=0;exitDy=0;" parent="yH9x7RMEsDiriQ-Wmc9Q-65" edge="1">
          <mxGeometry width="50" height="50" relative="1" as="geometry">
            <mxPoint x="160" y="61" as="sourcePoint" />
            <mxPoint x="160" y="1" as="targetPoint" />
          </mxGeometry>
        </mxCell>
        <mxCell id="yH9x7RMEsDiriQ-Wmc9Q-66" value="" style="group" parent="1" vertex="1" connectable="0">
          <mxGeometry x="890" y="500" width="180" height="61" as="geometry" />
        </mxCell>
        <mxCell id="yH9x7RMEsDiriQ-Wmc9Q-67" value="" style="endArrow=none;html=1;rounded=0;entryX=0.25;entryY=0;entryDx=0;entryDy=0;exitX=0.25;exitY=1;exitDx=0;exitDy=0;" parent="yH9x7RMEsDiriQ-Wmc9Q-66" edge="1">
          <mxGeometry width="50" height="50" relative="1" as="geometry">
            <mxPoint x="160.5" y="60" as="sourcePoint" />
            <mxPoint x="160.5" as="targetPoint" />
          </mxGeometry>
        </mxCell>
        <mxCell id="yH9x7RMEsDiriQ-Wmc9Q-91" style="edgeStyle=orthogonalEdgeStyle;rounded=0;orthogonalLoop=1;jettySize=auto;html=1;exitX=1;exitY=1;exitDx=0;exitDy=0;" parent="yH9x7RMEsDiriQ-Wmc9Q-66" edge="1">
          <mxGeometry relative="1" as="geometry">
            <mxPoint x="170" y="120" as="targetPoint" />
            <mxPoint x="170" y="60" as="sourcePoint" />
          </mxGeometry>
        </mxCell>
        <mxCell id="yH9x7RMEsDiriQ-Wmc9Q-68" value="" style="rounded=0;whiteSpace=wrap;html=1;container=0;" parent="yH9x7RMEsDiriQ-Wmc9Q-66" vertex="1">
          <mxGeometry width="180" height="60" as="geometry" />
        </mxCell>
        <mxCell id="yH9x7RMEsDiriQ-Wmc9Q-70" value="" style="endArrow=none;html=1;rounded=0;entryX=0.25;entryY=0;entryDx=0;entryDy=0;exitX=0.25;exitY=1;exitDx=0;exitDy=0;" parent="yH9x7RMEsDiriQ-Wmc9Q-66" edge="1">
          <mxGeometry width="50" height="50" relative="1" as="geometry">
            <mxPoint x="19" y="61" as="sourcePoint" />
            <mxPoint x="19" y="1" as="targetPoint" />
          </mxGeometry>
        </mxCell>
        <mxCell id="yH9x7RMEsDiriQ-Wmc9Q-71" value="" style="endArrow=none;html=1;rounded=0;entryX=0.25;entryY=0;entryDx=0;entryDy=0;exitX=0.25;exitY=1;exitDx=0;exitDy=0;" parent="yH9x7RMEsDiriQ-Wmc9Q-66" edge="1">
          <mxGeometry width="50" height="50" relative="1" as="geometry">
            <mxPoint x="160" y="60" as="sourcePoint" />
            <mxPoint x="160" as="targetPoint" />
          </mxGeometry>
        </mxCell>
        <mxCell id="yH9x7RMEsDiriQ-Wmc9Q-73" value="" style="group" parent="1" vertex="1" connectable="0">
          <mxGeometry x="659" y="377" width="180" height="61" as="geometry" />
        </mxCell>
        <mxCell id="yH9x7RMEsDiriQ-Wmc9Q-74" value="" style="endArrow=none;html=1;rounded=0;entryX=0.25;entryY=0;entryDx=0;entryDy=0;exitX=0.25;exitY=1;exitDx=0;exitDy=0;" parent="yH9x7RMEsDiriQ-Wmc9Q-73" edge="1">
          <mxGeometry width="50" height="50" relative="1" as="geometry">
            <mxPoint x="160.5" y="60" as="sourcePoint" />
            <mxPoint x="160.5" as="targetPoint" />
          </mxGeometry>
        </mxCell>
        <mxCell id="yH9x7RMEsDiriQ-Wmc9Q-79" style="edgeStyle=orthogonalEdgeStyle;rounded=0;orthogonalLoop=1;jettySize=auto;html=1;exitX=0;exitY=1;exitDx=0;exitDy=0;" parent="yH9x7RMEsDiriQ-Wmc9Q-73" source="yH9x7RMEsDiriQ-Wmc9Q-75" edge="1">
          <mxGeometry relative="1" as="geometry">
            <mxPoint x="-139" y="123" as="targetPoint" />
            <Array as="points">
              <mxPoint x="11" y="60" />
              <mxPoint x="11" y="83" />
              <mxPoint x="-139" y="83" />
            </Array>
          </mxGeometry>
        </mxCell>
        <mxCell id="yH9x7RMEsDiriQ-Wmc9Q-75" value="" style="rounded=0;whiteSpace=wrap;html=1;container=0;" parent="yH9x7RMEsDiriQ-Wmc9Q-73" vertex="1">
          <mxGeometry width="180" height="60" as="geometry" />
        </mxCell>
        <mxCell id="yH9x7RMEsDiriQ-Wmc9Q-76" value="" style="endArrow=none;html=1;rounded=0;entryX=0.25;entryY=0;entryDx=0;entryDy=0;exitX=0.25;exitY=1;exitDx=0;exitDy=0;" parent="yH9x7RMEsDiriQ-Wmc9Q-73" edge="1">
          <mxGeometry width="50" height="50" relative="1" as="geometry">
            <mxPoint x="19" y="61" as="sourcePoint" />
            <mxPoint x="19" y="1" as="targetPoint" />
          </mxGeometry>
        </mxCell>
        <mxCell id="yH9x7RMEsDiriQ-Wmc9Q-77" value="" style="endArrow=none;html=1;rounded=0;entryX=0.25;entryY=0;entryDx=0;entryDy=0;exitX=0.25;exitY=1;exitDx=0;exitDy=0;" parent="yH9x7RMEsDiriQ-Wmc9Q-73" edge="1">
          <mxGeometry width="50" height="50" relative="1" as="geometry">
            <mxPoint x="160" y="60" as="sourcePoint" />
            <mxPoint x="160" as="targetPoint" />
          </mxGeometry>
        </mxCell>
        <mxCell id="yH9x7RMEsDiriQ-Wmc9Q-82" style="edgeStyle=orthogonalEdgeStyle;rounded=0;orthogonalLoop=1;jettySize=auto;html=1;exitX=1;exitY=1;exitDx=0;exitDy=0;entryX=0.5;entryY=0;entryDx=0;entryDy=0;" parent="1" source="yH9x7RMEsDiriQ-Wmc9Q-75" target="yH9x7RMEsDiriQ-Wmc9Q-68" edge="1">
          <mxGeometry relative="1" as="geometry">
            <Array as="points">
              <mxPoint x="830" y="437" />
              <mxPoint x="830" y="460" />
              <mxPoint x="980" y="460" />
            </Array>
          </mxGeometry>
        </mxCell>
        <mxCell id="yH9x7RMEsDiriQ-Wmc9Q-83" style="edgeStyle=orthogonalEdgeStyle;rounded=0;orthogonalLoop=1;jettySize=auto;html=1;exitX=0;exitY=1;exitDx=0;exitDy=0;" parent="1" source="yH9x7RMEsDiriQ-Wmc9Q-59" target="yH9x7RMEsDiriQ-Wmc9Q-37" edge="1">
          <mxGeometry relative="1" as="geometry">
            <Array as="points">
              <mxPoint x="440" y="560" />
              <mxPoint x="440" y="590" />
              <mxPoint x="220" y="590" />
            </Array>
          </mxGeometry>
        </mxCell>
        <mxCell id="yH9x7RMEsDiriQ-Wmc9Q-85" style="edgeStyle=orthogonalEdgeStyle;rounded=0;orthogonalLoop=1;jettySize=auto;html=1;exitX=0.5;exitY=1;exitDx=0;exitDy=0;entryX=0.5;entryY=0;entryDx=0;entryDy=0;" parent="1" source="yH9x7RMEsDiriQ-Wmc9Q-59" target="yH9x7RMEsDiriQ-Wmc9Q-47" edge="1">
          <mxGeometry relative="1" as="geometry" />
        </mxCell>
        <mxCell id="yH9x7RMEsDiriQ-Wmc9Q-86" style="edgeStyle=orthogonalEdgeStyle;rounded=0;orthogonalLoop=1;jettySize=auto;html=1;exitX=1;exitY=1;exitDx=0;exitDy=0;entryX=0.5;entryY=0;entryDx=0;entryDy=0;" parent="1" source="yH9x7RMEsDiriQ-Wmc9Q-59" target="yH9x7RMEsDiriQ-Wmc9Q-48" edge="1">
          <mxGeometry relative="1" as="geometry">
            <Array as="points">
              <mxPoint x="600" y="560" />
              <mxPoint x="600" y="590" />
              <mxPoint x="624" y="590" />
            </Array>
          </mxGeometry>
        </mxCell>
        <mxCell id="yH9x7RMEsDiriQ-Wmc9Q-90" style="edgeStyle=orthogonalEdgeStyle;rounded=0;orthogonalLoop=1;jettySize=auto;html=1;exitX=0;exitY=1;exitDx=0;exitDy=0;" parent="1" edge="1">
          <mxGeometry relative="1" as="geometry">
            <mxPoint x="901.0000000000002" y="560" as="sourcePoint" />
            <mxPoint x="891" y="620" as="targetPoint" />
            <Array as="points">
              <mxPoint x="900" y="591" />
              <mxPoint x="892" y="591" />
              <mxPoint x="892" y="620" />
            </Array>
          </mxGeometry>
        </mxCell>
      </root>
    </mxGraphModel>
  </diagram>
</mxfile>
